<svg width="24" height="24" viewBox="0 0 24 24" fill="none" xmlns="http://www.w3.org/2000/svg">
<path d="M12.0238 0H11.9691C5.35877 0 0 5.36035 0 11.9727V12.0273C0 18.6397 5.35877 24 11.9691 24H12.0238C18.6342 24 23.9929 18.6397 23.9929 12.0273V11.9727C23.9929 5.36035 18.6342 0 12.0238 0Z" fill="black"/>
<path d="M15.708 4.88257H8.28394C6.2329 4.88257 4.56433 6.55163 4.56433 8.60327V15.3972C4.56433 17.4489 6.2329 19.1179 8.28394 19.1179H15.708C17.7591 19.1179 19.4276 17.4489 19.4276 15.3972V8.60327C19.4276 6.55163 17.7591 4.88257 15.708 4.88257ZM5.87649 8.60327C5.87649 7.27559 6.95665 6.19511 8.28394 6.19511H15.708C17.0353 6.19511 18.1155 7.27559 18.1155 8.60327V15.3972C18.1155 16.7249 17.0353 17.8054 15.708 17.8054H8.28394C6.95665 17.8054 5.87649 16.7249 5.87649 15.3972V8.60327Z" fill="white"/>
<path d="M11.9959 15.4603C13.9032 15.4603 15.4558 13.9082 15.4558 11.9995C15.4558 10.0908 13.9041 8.53857 11.9959 8.53857C10.0878 8.53857 8.53607 10.0908 8.53607 11.9995C8.53607 13.9082 10.0878 15.4603 11.9959 15.4603ZM11.9959 9.85196C13.1803 9.85196 14.1436 10.8156 14.1436 12.0003C14.1436 13.185 13.1803 14.1486 11.9959 14.1486C10.8115 14.1486 9.84823 13.185 9.84823 12.0003C9.84823 10.8156 10.8115 9.85196 11.9959 9.85196Z" fill="white"/>
<path d="M15.7761 9.09765C16.2897 9.09765 16.7083 8.67975 16.7083 8.16516C16.7083 7.65056 16.2905 7.23267 15.7761 7.23267C15.2616 7.23267 14.8439 7.65056 14.8439 8.16516C14.8439 8.67975 15.2616 9.09765 15.7761 9.09765Z" fill="white"/>
</svg>
