<svg width="24" height="24" viewBox="0 0 24 24" fill="none" xmlns="http://www.w3.org/2000/svg">
<path d="M23.9921 12.0004C23.9921 18.0612 19.5008 23.0717 13.6663 23.8848C13.1208 23.9605 12.5626 24 11.996 24C11.3421 24 10.6999 23.9479 10.0745 23.847C4.36266 22.9271 0 17.9729 0 12.0004C0 5.37294 5.37136 0 11.9969 0C18.6224 0 23.9938 5.37294 23.9938 12.0004H23.9921Z" fill="black"/>
<path d="M4.86461 5.29321L10.3974 12.6926L4.83014 18.7088H6.08346L10.958 13.4418L14.8962 18.7088H19.1605L13.3167 10.8932L18.499 5.29321H17.2456L12.7569 10.144L9.12975 5.29321H4.86544H4.86461ZM6.70717 6.21645H8.66575L17.3163 17.7855H15.3577L6.70717 6.21645Z" fill="white"/>
</svg>
