<svg width="24" height="24" viewBox="0 0 24 24" fill="none" xmlns="http://www.w3.org/2000/svg">
<path d="M23.9929 12C23.9929 5.37258 18.6219 0 11.9965 0C5.37101 0 0 5.37258 0 12C0 18.6274 5.37101 24 11.9965 24C18.6219 24 23.9929 18.6274 23.9929 12Z" fill="black"/>
<path d="M19.5506 9.5134C19.4562 8.60187 19.2531 7.59422 18.5053 7.06467C17.9262 6.65402 17.165 6.63883 16.4544 6.63968C14.9522 6.63968 13.4491 6.64221 11.9469 6.64305C10.5021 6.64474 9.05719 6.64558 7.61232 6.64727C7.00874 6.64727 6.42203 6.60089 5.86144 6.86229C5.3801 7.08659 5.00329 7.51327 4.77653 7.98801C4.46209 8.64825 4.39635 9.3962 4.35841 10.1264C4.28844 11.4562 4.29603 12.7894 4.37949 14.1183C4.44102 15.088 4.59697 16.1597 5.34638 16.7778C6.01065 17.3251 6.94805 17.3521 7.80957 17.3529C10.5442 17.3554 13.2797 17.358 16.0152 17.3597C16.3658 17.3605 16.7317 17.3538 17.0891 17.315C17.7922 17.2391 18.4623 17.0375 18.9142 16.5164C19.3702 15.9911 19.4874 15.26 19.5565 14.5677C19.7251 12.888 19.7234 11.1923 19.5506 9.5134ZM10.3655 14.3544V9.64495L14.4422 11.9992L10.3655 14.3544Z" fill="white"/>
</svg>
